<svg aria-hidden="true" style="width:0;height:0;position:absolute;overflow:hidden" xmlns="http://www.w3.org/2000/svg"><defs><symbol id="btn-arrow" viewBox="0 0 26 32"><path fill="#d41443" style="fill:var(--color1,#d41443)" d="M3.52 32c-.96 0-1.92-.32-2.56-1.28-.96-1.28-.64-3.52.64-4.48L15.04 16 1.6 5.76C.32 4.8 0 2.56.96 1.28s3.2-1.6 4.48-.64l16.96 12.8c.64.64 1.28 1.6 1.28 2.56s-.64 1.92-1.28 2.56L5.44 31.36c-.64.32-1.28.64-1.92.64z"/></symbol><symbol id="burger" viewBox="0 0 46 32"><path fill="#d41443" style="fill:var(--color1,#d41443)" d="M0 1.143h45.714v2.286H0V1.143zM0 14.857h45.714v2.286H0v-2.286zM0 28.571h45.714v2.286H0v-2.286z"/></symbol><symbol id="close" viewBox="0 0 32 32"><path fill="#fff" style="fill:var(--color1,#fff)" d="m1.823 2.719 1.441-1.387L30.18 29.28l-1.441 1.387L1.823 2.719z"/><path fill="#fff" style="fill:var(--color1,#fff)" d="m1.327 28.729 27.959-26.9 1.387 1.441-27.959 26.9-1.387-1.441z"/></symbol><symbol id="arrow" viewBox="0 0 32 32"><path d="m19.414 27.414 10-10a2 2 0 0 0 0-2.828l-10-10a2 2 0 1 0-2.828 2.828L23.172 14H4a2 2 0 1 0 0 4h19.172l-6.586 6.586c-.39.39-.586.902-.586 1.414s.195 1.024.586 1.414a2 2 0 0 0 2.828 0z"/></symbol><symbol id="icon-close-black" viewBox="0 0 32 32"><path d="m26.667 7.303-1.97-1.97-7.808 7.808-7.808-7.808-1.97 1.97 7.808 7.808-7.808 7.808 1.97 1.97 7.808-7.808 7.808 7.808 1.97-1.97-7.808-7.808 7.808-7.808z"/></symbol><symbol id="icon-mobile" viewBox="0 0 32 32"><path d="M23 0H9C7.35 0 6 1.35 6 3v26c0 1.65 1.35 3 3 3h14c1.65 0 3-1.35 3-3V3c0-1.65-1.35-3-3-3zM12 1.5h8v1h-8v-1zM16 30a2 2 0 1 1-.001-3.999A2 2 0 0 1 16 30zm8-6H8V4h16v20z"/></symbol><symbol id="icon-user" viewBox="0 0 32 32"><path d="M18 22.082v-1.649c2.203-1.241 4-4.337 4-7.432 0-4.971 0-9-6-9s-6 4.029-6 9c0 3.096 1.797 6.191 4 7.432v1.649C7.216 22.637 2 25.97 2 30h28c0-4.03-5.216-7.364-12-7.918z"/></symbol><symbol id="icon-mail" viewBox="0 0 32 32"><path d="M16 0C7.163 0 0 7.163 0 16s7.163 16 16 16 16-7.163 16-16S24.837 0 16 0zM8 8h16c.286 0 .563.061.817.177L16 18.463 7.183 8.176c.254-.116.531-.177.817-.177zM6 22V10c0-.042.002-.084.004-.125l5.864 6.842-5.8 5.8A1.983 1.983 0 0 1 5.999 22zm18 2H8c-.177 0-.35-.024-.517-.069l5.691-5.691L16 21.537l2.826-3.297 5.691 5.691c-.167.045-.34.069-.517.069zm2-2c0 .177-.024.35-.069.517l-5.8-5.8 5.865-6.842c.003.041.004.083.004.125v12z"/></symbol><symbol id="btn-arrow-w" viewBox="0 0 26 32"><path fill="#fff" style="fill:var(--color1,#dff)" d="M3.52 32c-.96 0-1.92-.32-2.56-1.28-.96-1.28-.64-3.52.64-4.48L15.04 16 1.6 5.76C.32 4.8 0 2.56.96 1.28s3.2-1.6 4.48-.64l16.96 12.8c.64.64 1.28 1.6 1.28 2.56s-.64 1.92-1.28 2.56L5.44 31.36c-.64.32-1.28.64-1.92.64z"/></symbol><symbol id="about-icon" viewBox="0 0 26 32"><path fill="none" stroke="#d41443" style="stroke:var(--color1,#d41443)" stroke-linejoin="round" stroke-linecap="round" stroke-width="6.4" d="M5.172 3.2 19.341 16 5.172 28.8"/></symbol><symbol id="icon-group-telegram" viewBox="0 0 40 32"><path d="m16.206 20.75-.636 8.34c.908 0 1.302-.366 1.774-.802l4.26-3.8 8.83 6.034c1.62.84 2.76.398 3.196-1.39l5.796-25.346h.002c.514-2.236-.866-3.108-2.444-2.56L2.92 13.398c-2.324.84-2.29 2.052-.396 2.6l8.71 2.528 20.23-11.814c.952-.588 1.816-.264 1.104.326L16.206 20.75z"/></symbol><symbol id="icon-group-facebook" viewBox="0 0 16 32"><path d="M14.266 15.97H10.09v15.39H3.764V15.968H.753V10.56h3.008V7.062C3.761 4.558 4.945.64 10.145.64l4.688.019v5.25h-3.4c-.557 0-1.342.282-1.342 1.475v3.184h4.73l-.554 5.4z"/></symbol><symbol id="icon-group-github" viewBox="0 0 32 32"><path d="M16 .941C7.728.941.941 7.728.941 16c0 7.058 4.954 13.469 11.53 15.059v-4.982c-.651.142-1.251.147-1.915-.048-.89-.264-1.613-.856-2.149-1.76-.342-.578-.949-1.203-1.581-1.157l-.155-1.76c1.368-.115 2.55.835 3.253 2.016.312.523.672.832 1.133.968.445.131.923.067 1.482-.128.139-1.117.651-1.536 1.037-2.123-3.922-.586-5.485-2.667-6.106-4.309-.822-2.181-.381-4.906 1.072-6.627.029-.034.08-.122.061-.182-.667-2.014.144-3.68.176-3.856.768.227.893-.229 3.341 1.258l.422.254c.176.106.122.045.299.032a12.42 12.42 0 0 1 3.15-.446h.01c1.147.018 2.247.183 3.294.478l-.09-.022.138.013c-.013 0 .037-.008.12-.058 3.056-1.851 2.947-1.246 3.766-1.512.03.176.832 1.869.171 3.856-.088.275 2.651 2.784 1.133 6.81-.621 1.643-2.184 3.725-6.106 4.31.502.766 1.107 1.174 1.104 2.755v6.219c6.576-1.59 11.53-8 11.53-15.059 0-8.27-6.787-15.058-15.059-15.058z"/></symbol></defs></svg>