<svg aria-hidden="true" style="width:0;height:0;position:absolute;overflow:hidden" xmlns="http://www.w3.org/2000/svg"><defs><symbol id="btn-arrow" viewBox="0 0 26 32"><path fill="#d41443" style="fill:var(--color1,#d41443)" d="M3.52 32c-.96 0-1.92-.32-2.56-1.28-.96-1.28-.64-3.52.64-4.48L15.04 16 1.6 5.76C.32 4.8 0 2.56.96 1.28s3.2-1.6 4.48-.64l16.96 12.8c.64.64 1.28 1.6 1.28 2.56s-.64 1.92-1.28 2.56L5.44 31.36c-.64.32-1.28.64-1.92.64z"/></symbol><symbol id="burger" viewBox="0 0 46 32"><path fill="#d41443" style="fill:var(--color1,#d41443)" d="M0 1.143h45.714v2.286H0V1.143zM0 14.857h45.714v2.286H0v-2.286zM0 28.571h45.714v2.286H0v-2.286z"/></symbol><symbol id="close" viewBox="0 0 32 32"><path fill="#fff" style="fill:var(--color1,#fff)" d="m1.823 2.719 1.441-1.387L30.18 29.28l-1.441 1.387L1.823 2.719z"/><path fill="#fff" style="fill:var(--color1,#fff)" d="m1.327 28.729 27.959-26.9 1.387 1.441-27.959 26.9-1.387-1.441z"/></symbol><symbol id="arrow" viewBox="0 0 32 32"><path d="m19.414 27.414 10-10a2 2 0 0 0 0-2.828l-10-10a2 2 0 1 0-2.828 2.828L23.172 14H4a2 2 0 1 0 0 4h19.172l-6.586 6.586c-.39.39-.586.902-.586 1.414s.195 1.024.586 1.414a2 2 0 0 0 2.828 0z"/></symbol><symbol id="icon-close-black" viewBox="0 0 32 32"><path d="m26.667 7.303-1.97-1.97-7.808 7.808-7.808-7.808-1.97 1.97 7.808 7.808-7.808 7.808 1.97 1.97 7.808-7.808 7.808 7.808 1.97-1.97-7.808-7.808 7.808-7.808z"/></symbol><symbol id="icon-mobile" viewBox="0 0 32 32"><path d="M23 0H9C7.35 0 6 1.35 6 3v26c0 1.65 1.35 3 3 3h14c1.65 0 3-1.35 3-3V3c0-1.65-1.35-3-3-3zM12 1.5h8v1h-8v-1zM16 30a2 2 0 1 1-.001-3.999A2 2 0 0 1 16 30zm8-6H8V4h16v20z"/></symbol><symbol id="icon-user" viewBox="0 0 32 32"><path d="M18 22.082v-1.649c2.203-1.241 4-4.337 4-7.432 0-4.971 0-9-6-9s-6 4.029-6 9c0 3.096 1.797 6.191 4 7.432v1.649C7.216 22.637 2 25.97 2 30h28c0-4.03-5.216-7.364-12-7.918z"/></symbol><symbol id="icon-mail" viewBox="0 0 32 32"><path d="M16 0C7.163 0 0 7.163 0 16s7.163 16 16 16 16-7.163 16-16S24.837 0 16 0zM8 8h16c.286 0 .563.061.817.177L16 18.463 7.183 8.176c.254-.116.531-.177.817-.177zM6 22V10c0-.042.002-.084.004-.125l5.864 6.842-5.8 5.8A1.983 1.983 0 0 1 5.999 22zm18 2H8c-.177 0-.35-.024-.517-.069l5.691-5.691L16 21.537l2.826-3.297 5.691 5.691c-.167.045-.34.069-.517.069zm2-2c0 .177-.024.35-.069.517l-5.8-5.8 5.865-6.842c.003.041.004.083.004.125v12z"/></symbol><symbol id="btn-arrow-w" viewBox="0 0 26 32"><path fill="#fff" style="fill:var(--color1,#dff)" d="M3.52 32c-.96 0-1.92-.32-2.56-1.28-.96-1.28-.64-3.52.64-4.48L15.04 16 1.6 5.76C.32 4.8 0 2.56.96 1.28s3.2-1.6 4.48-.64l16.96 12.8c.64.64 1.28 1.6 1.28 2.56s-.64 1.92-1.28 2.56L5.44 31.36c-.64.32-1.28.64-1.92.64z"/></symbol><symbol id="about-icon" viewBox="0 0 26 32"><path fill="none" stroke="#d41443" style="stroke:var(--color1,#d41443)" stroke-linejoin="round" stroke-linecap="round" stroke-width="6.4" d="M5.172 3.2 19.341 16 5.172 28.8"/></symbol><symbol id="icon-group-facebook32px" viewBox="0 0 33 32"><path d="M16.47 32c8.837 0 16-7.163 16-16s-7.163-16-16-16c-8.836 0-16 7.163-16 16s7.164 16 16 16z"/><path fill="#fff" style="fill:var(--color2,#fff)" d="M20.916 15.981h-2.61V25.6h-3.955v-9.62h-1.88V12.6h1.88v-2.187c0-1.565.74-4.014 3.99-4.014l2.93.012v3.281h-2.126c-.348 0-.839.176-.839.922v1.99h2.956l-.346 3.376z"/></symbol><symbol id="icon-group-telegram32px" viewBox="0 0 33 32"><path d="M32.235 16c0 8.837-7.163 16-16 16s-16-7.163-16-16 7.163-16 16-16 16 7.163 16 16z"/><path fill="#fff" style="fill:var(--color2,#fff)" d="m13.102 18.375-.317 4.17c.454 0 .651-.183.887-.401l2.13-1.9 4.415 3.017c.81.42 1.38.199 1.599-.695l2.897-12.673h.001c.257-1.118-.433-1.554-1.222-1.28L6.46 14.699c-1.162.42-1.145 1.026-.198 1.3l4.355 1.264 10.114-5.907c.476-.294.91-.131.553.163l-8.181 6.856z"/></symbol><symbol id="icon-group-github32px" viewBox="0 0 32 32"><path d="M32 16c0 8.837-7.163 16-16 16S0 24.837 0 16 7.163 0 16 0s16 7.163 16 16z"/><path fill="#fff" style="fill:var(--color2,#fff)" d="M16 6.588c-5.17 0-9.412 4.242-9.412 9.412 0 4.411 3.096 8.418 7.206 9.412v-3.114a2.307 2.307 0 0 1-1.197-.03c-.556-.165-1.008-.535-1.343-1.1-.214-.361-.593-.752-.988-.723l-.097-1.1c.855-.072 1.594.522 2.033 1.26.195.327.42.52.708.605.278.082.577.042.926-.08.087-.698.407-.96.648-1.327-2.451-.366-3.428-1.667-3.816-2.693-.514-1.363-.238-3.066.67-4.142.018-.021.05-.076.038-.114-.417-1.259.09-2.3.11-2.41.48.142.558-.143 2.088.786l.264.159c.11.066.076.028.187.02a7.77 7.77 0 0 1 1.969-.279H16a7.986 7.986 0 0 1 2.058.299l-.056-.014.086.008c-.008 0 .023-.005.075-.036 1.91-1.157 1.842-.779 2.354-.945.019.11.52 1.168.108 2.41-.056.172 1.656 1.74.707 4.256-.388 1.027-1.365 2.328-3.816 2.693v.001c.314.479.692.734.69 1.722v3.887c4.11-.994 7.206-5 7.206-9.412 0-5.17-4.242-9.412-9.412-9.412z"/></symbol></defs></svg>