<svg aria-hidden="true" style="width:0;height:0;position:absolute;overflow:hidden" xmlns="http://www.w3.org/2000/svg"><defs><symbol id="btn-arrow" viewBox="0 0 26 32"><path fill="#d41443" style="fill:var(--color1,#d41443)" d="M3.52 32c-.96 0-1.92-.32-2.56-1.28-.96-1.28-.64-3.52.64-4.48L15.04 16 1.6 5.76C.32 4.8 0 2.56.96 1.28s3.2-1.6 4.48-.64l16.96 12.8c.64.64 1.28 1.6 1.28 2.56s-.64 1.92-1.28 2.56L5.44 31.36c-.64.32-1.28.64-1.92.64z"/></symbol><symbol id="burger" viewBox="0 0 46 32"><path fill="#d41443" style="fill:var(--color1,#d41443)" d="M0 1.143h45.714v2.286H0V1.143zM0 14.857h45.714v2.286H0v-2.286zM0 28.571h45.714v2.286H0v-2.286z"/></symbol><symbol id="close" viewBox="0 0 32 32"><path fill="#fff" style="fill:var(--color1,#fff)" d="m1.823 2.719 1.441-1.387L30.18 29.28l-1.441 1.387L1.823 2.719z"/><path fill="#fff" style="fill:var(--color1,#fff)" d="m1.327 28.729 27.959-26.9 1.387 1.441-27.959 26.9-1.387-1.441z"/></symbol><symbol id="arrow" viewBox="0 0 32 32"><path d="m19.414 27.414 10-10a2 2 0 0 0 0-2.828l-10-10a2 2 0 1 0-2.828 2.828L23.172 14H4a2 2 0 1 0 0 4h19.172l-6.586 6.586c-.39.39-.586.902-.586 1.414s.195 1.024.586 1.414a2 2 0 0 0 2.828 0z"/></symbol><symbol id="icon-close-black" viewBox="0 0 32 32"><path d="m26.667 7.303-1.97-1.97-7.808 7.808-7.808-7.808-1.97 1.97 7.808 7.808-7.808 7.808 1.97 1.97 7.808-7.808 7.808 7.808 1.97-1.97-7.808-7.808 7.808-7.808z"/></symbol><symbol id="icon-mobile" viewBox="0 0 32 32"><path d="M23 0H9C7.35 0 6 1.35 6 3v26c0 1.65 1.35 3 3 3h14c1.65 0 3-1.35 3-3V3c0-1.65-1.35-3-3-3zM12 1.5h8v1h-8v-1zM16 30a2 2 0 1 1-.001-3.999A2 2 0 0 1 16 30zm8-6H8V4h16v20z"/></symbol><symbol id="icon-user" viewBox="0 0 32 32"><path d="M18 22.082v-1.649c2.203-1.241 4-4.337 4-7.432 0-4.971 0-9-6-9s-6 4.029-6 9c0 3.096 1.797 6.191 4 7.432v1.649C7.216 22.637 2 25.97 2 30h28c0-4.03-5.216-7.364-12-7.918z"/></symbol><symbol id="icon-mail" viewBox="0 0 32 32"><path d="M16 0C7.163 0 0 7.163 0 16s7.163 16 16 16 16-7.163 16-16S24.837 0 16 0zM8 8h16c.286 0 .563.061.817.177L16 18.463 7.183 8.176c.254-.116.531-.177.817-.177zM6 22V10c0-.042.002-.084.004-.125l5.864 6.842-5.8 5.8A1.983 1.983 0 0 1 5.999 22zm18 2H8c-.177 0-.35-.024-.517-.069l5.691-5.691L16 21.537l2.826-3.297 5.691 5.691c-.167.045-.34.069-.517.069zm2-2c0 .177-.024.35-.069.517l-5.8-5.8 5.865-6.842c.003.041.004.083.004.125v12z"/></symbol><symbol id="btn-arrow-w" viewBox="0 0 26 32"><path fill="#fff" style="fill:var(--color1,#dff)" d="M3.52 32c-.96 0-1.92-.32-2.56-1.28-.96-1.28-.64-3.52.64-4.48L15.04 16 1.6 5.76C.32 4.8 0 2.56.96 1.28s3.2-1.6 4.48-.64l16.96 12.8c.64.64 1.28 1.6 1.28 2.56s-.64 1.92-1.28 2.56L5.44 31.36c-.64.32-1.28.64-1.92.64z"/></symbol></defs></svg>