<svg aria-hidden="true" style="width:0;height:0;position:absolute;overflow:hidden" xmlns="http://www.w3.org/2000/svg"><defs><symbol id="btn-arrow" viewBox="0 0 26 32"><path fill="#d41443" style="fill:var(--color1,#d41443)" d="M3.52 32c-.96 0-1.92-.32-2.56-1.28-.96-1.28-.64-3.52.64-4.48L15.04 16 1.6 5.76C.32 4.8 0 2.56.96 1.28s3.2-1.6 4.48-.64l16.96 12.8c.64.64 1.28 1.6 1.28 2.56s-.64 1.92-1.28 2.56L5.44 31.36c-.64.32-1.28.64-1.92.64z"/></symbol><symbol id="btn-arrow-w" viewBox="0 0 26 32"><path fill="#fff" style="fill:var(--color1,#fff)" d="M3.52 32c-.96 0-1.92-.32-2.56-1.28-.96-1.28-.64-3.52.64-4.48L15.04 16 1.6 5.76C.32 4.8 0 2.56.96 1.28s3.2-1.6 4.48-.64l16.96 12.8c.64.64 1.28 1.6 1.28 2.56s-.64 1.92-1.28 2.56L5.44 31.36c-.64.32-1.28.64-1.92.64z"/></symbol><symbol id="burger" viewBox="0 0 46 32"><path fill="#d41443" style="fill:var(--color1,#d41443)" d="M0 1.143h45.714v2.286H0V1.143zM0 14.857h45.714v2.286H0v-2.286zM0 28.571h45.714v2.286H0v-2.286z"/></symbol><symbol id="close" viewBox="0 0 32 32"><path fill="#fff" style="fill:var(--color1,#fff)" d="m1.823 2.719 1.441-1.387L30.18 29.28l-1.441 1.387L1.823 2.719z"/><path fill="#fff" style="fill:var(--color1,#fff)" d="m1.327 28.729 27.959-26.9 1.387 1.441-27.959 26.9-1.387-1.441z"/></symbol><symbol id="arrow" viewBox="0 0 32 32"><path d="m19.414 27.414 10-10a2 2 0 0 0 0-2.828l-10-10a2 2 0 1 0-2.828 2.828L23.172 14H4a2 2 0 1 0 0 4h19.172l-6.586 6.586c-.39.39-.586.902-.586 1.414s.195 1.024.586 1.414a2 2 0 0 0 2.828 0z"/></symbol></defs></svg>