<svg aria-hidden="true" style="position: absolute; width: 0; height: 0; overflow: hidden;" version="1.1" xmlns="http://www.w3.org/2000/svg" xmlns:xlink="http://www.w3.org/1999/xlink">
<defs>
<symbol id="btn-arrow" viewBox="0 0 26 32">
<path fill="#d41443" style="fill: var(--color1, #d41443)" d="M3.52 32c-0.96 0-1.92-0.32-2.56-1.28-0.96-1.28-0.64-3.52 0.64-4.48l13.44-10.24-13.44-10.24c-1.28-0.96-1.6-3.2-0.64-4.48s3.2-1.6 4.48-0.64l16.96 12.8c0.64 0.64 1.28 1.6 1.28 2.56s-0.64 1.92-1.28 2.56l-16.96 12.8c-0.64 0.32-1.28 0.64-1.92 0.64z"></path>
</symbol>
<symbol id="burger" viewBox="0 0 46 32">
<path fill="#d41443" style="fill: var(--color1, #d41443)" d="M0 1.143h45.714v2.286h-45.714v-2.286z"></path>
<path fill="#d41443" style="fill: var(--color1, #d41443)" d="M0 14.857h45.714v2.286h-45.714v-2.286z"></path>
<path fill="#d41443" style="fill: var(--color1, #d41443)" d="M0 28.571h45.714v2.286h-45.714v-2.286z"></path>
</symbol>
<symbol id="close" viewBox="0 0 32 32">
<path fill="#fff" style="fill: var(--color1, #fff)" d="M1.823 2.719l1.441-1.387 26.916 27.948-1.441 1.387-26.916-27.948z"></path>
<path fill="#fff" style="fill: var(--color1, #fff)" d="M1.327 28.729l27.959-26.9 1.387 1.441-27.959 26.9-1.387-1.441z"></path>
</symbol>
<symbol id="arrow" viewBox="0 0 32 32">
<path d="M19.414 27.414l10-10c0.781-0.781 0.781-2.047 0-2.828l-10-10c-0.781-0.781-2.047-0.781-2.828 0s-0.781 2.047 0 2.828l6.586 6.586h-19.172c-1.105 0-2 0.895-2 2s0.895 2 2 2h19.172l-6.586 6.586c-0.39 0.39-0.586 0.902-0.586 1.414s0.195 1.024 0.586 1.414c0.781 0.781 2.047 0.781 2.828 0z"></path>
</symbol>
</defs>
</svg>
