<svg aria-hidden="true" style="position: absolute; width: 0; height: 0; overflow: hidden;" version="1.1" xmlns="http://www.w3.org/2000/svg" xmlns:xlink="http://www.w3.org/1999/xlink">

    <defs>
        <symbol id="btn-arrow" viewBox="0 0 26 32">
            <path fill="#d41443" style="fill: var(--color1, #d41443)" d="M3.52 32c-0.96 0-1.92-0.32-2.56-1.28-0.96-1.28-0.64-3.52 0.64-4.48l13.44-10.24-13.44-10.24c-1.28-0.96-1.6-3.2-0.64-4.48s3.2-1.6 4.48-0.64l16.96 12.8c0.64 0.64 1.28 1.6 1.28 2.56s-0.64 1.92-1.28 2.56l-16.96 12.8c-0.64 0.32-1.28 0.64-1.92 0.64z"></path>
        </symbol>
        <symbol id="burger" viewBox="0 0 46 32">
            <path fill="#d41443" style="fill: var(--color1, #d41443)" d="M0 1.143h45.714v2.286h-45.714v-2.286z"></path>
            <path fill="#d41443" style="fill: var(--color1, #d41443)" d="M0 14.857h45.714v2.286h-45.714v-2.286z"></path>
            <path fill="#d41443" style="fill: var(--color1, #d41443)" d="M0 28.571h45.714v2.286h-45.714v-2.286z"></path>
        </symbol>
        <symbol id="close" viewBox="0 0 32 32">
            <path fill="#fff" style="fill: var(--color1, #fff)" d="M1.823 2.719l1.441-1.387 26.916 27.948-1.441 1.387-26.916-27.948z"></path>
            <path fill="#fff" style="fill: var(--color1, #fff)" d="M1.327 28.729l27.959-26.9 1.387 1.441-27.959 26.9-1.387-1.441z"></path>
        </symbol>
        <symbol id="arrow" viewBox="0 0 32 32">
            <path d="M19.414 27.414l10-10c0.781-0.781 0.781-2.047 0-2.828l-10-10c-0.781-0.781-2.047-0.781-2.828 0s-0.781 2.047 0 2.828l6.586 6.586h-19.172c-1.105 0-2 0.895-2 2s0.895 2 2 2h19.172l-6.586 6.586c-0.39 0.39-0.586 0.902-0.586 1.414s0.195 1.024 0.586 1.414c0.781 0.781 2.047 0.781 2.828 0z"></path>
        </symbol>
        <symbol id="icon-close-black" viewBox="0 0 32 32">
            <path d="M26.667 7.303l-1.97-1.97-7.808 7.808-7.808-7.808-1.97 1.97 7.808 7.808-7.808 7.808 1.97 1.97 7.808-7.808 7.808 7.808 1.97-1.97-7.808-7.808 7.808-7.808z"></path>
        </symbol>
        <symbol id="icon-mobile" viewBox="0 0 32 32">
            <path d="M23 0h-14c-1.65 0-3 1.35-3 3v26c0 1.65 1.35 3 3 3h14c1.65 0 3-1.35 3-3v-26c0-1.65-1.35-3-3-3zM12 1.5h8v1h-8v-1zM16 30c-1.105 0-2-0.895-2-2s0.895-2 2-2 2 0.895 2 2-0.895 2-2 2zM24 24h-16v-20h16v20z"></path>
        </symbol>
        <symbol id="icon-user" viewBox="0 0 32 32">
            <path d="M18 22.082v-1.649c2.203-1.241 4-4.337 4-7.432 0-4.971 0-9-6-9s-6 4.029-6 9c0 3.096 1.797 6.191 4 7.432v1.649c-6.784 0.555-12 3.888-12 7.918h28c0-4.030-5.216-7.364-12-7.918z"></path>
        </symbol>
        <symbol id="icon-mail" viewBox="0 0 32 32">
            <path d="M16 0c-8.837 0-16 7.163-16 16s7.163 16 16 16 16-7.163 16-16-7.163-16-16-16zM8 8h16c0.286 0 0.563 0.061 0.817 0.177l-8.817 10.286-8.817-10.287c0.254-0.116 0.531-0.177 0.817-0.177zM6 22v-12c0-0.042 0.002-0.084 0.004-0.125l5.864 6.842-5.8 5.8c-0.045-0.167-0.069-0.34-0.069-0.517zM24 24h-16c-0.177 0-0.35-0.024-0.517-0.069l5.691-5.691 2.826 3.297 2.826-3.297 5.691 5.691c-0.167 0.045-0.34 0.069-0.517 0.069zM26 22c0 0.177-0.024 0.35-0.069 0.517l-5.8-5.8 5.865-6.842c0.003 0.041 0.004 0.083 0.004 0.125v12z"></path>
        </symbol>
        <symbol id="btn-arrow-w" viewBox="0 0 26 32">
            <path fill="#fff" style="fill: var(--color1, #dfff)" d="M3.52 32c-0.96 0-1.92-0.32-2.56-1.28-0.96-1.28-0.64-3.52 0.64-4.48l13.44-10.24-13.44-10.24c-1.28-0.96-1.6-3.2-0.64-4.48s3.2-1.6 4.48-0.64l16.96 12.8c0.64 0.64 1.28 1.6 1.28 2.56s-0.64 1.92-1.28 2.56l-16.96 12.8c-0.64 0.32-1.28 0.64-1.92 0.64z"></path>
        </symbol>
    </defs>
</svg>

